HIERARCHY
ROOT Hips
{
	OFFSET -0.001795 -0.223333 0.028219
	CHANNELS 6 Xposition Yposition Zposition Zrotation Yrotation Xrotation 
	JOINT LeftUpLeg
	{
		OFFSET 0.069520 -0.091406 -0.006815
		CHANNELS 3 Zrotation Yrotation Xrotation
		JOINT LeftLeg
		{
			OFFSET 0.034277 -0.375199 -0.004496
			CHANNELS 3 Zrotation Yrotation Xrotation
			JOINT LeftFoot
			{
				OFFSET -0.013596 -0.397961 -0.043693
				CHANNELS 3 Zrotation Yrotation Xrotation
				JOINT LeftToe
				{
					OFFSET 0.026358 -0.055791 0.119288
					CHANNELS 3 Zrotation Yrotation Xrotation
					End Site
					{
						OFFSET 0.000000 0.000000 0.000000
					}
				}
			}
		}
	}
	JOINT RightUpLeg
	{
		OFFSET -0.067670 -0.090522 -0.004320
		CHANNELS 3 Zrotation Yrotation Xrotation
		JOINT RightLeg
		{
			OFFSET -0.038290 -0.382569 -0.008850
			CHANNELS 3 Zrotation Yrotation Xrotation
			JOINT RightFoot
			{
				OFFSET 0.015774 -0.398415 -0.042312
				CHANNELS 3 Zrotation Yrotation Xrotation
				JOINT RightToe
				{
					OFFSET -0.025372 -0.048144 0.123348
					CHANNELS 3 Zrotation Yrotation Xrotation
					End Site
					{
						OFFSET 0.000000 0.000000 0.000000
					}
				}
			}
		}
	}
	JOINT Spine
	{
		OFFSET -0.002533 0.108963 -0.026696
		CHANNELS 3 Zrotation Yrotation Xrotation
		JOINT Spine1
		{
			OFFSET 0.005487 0.135180 0.001092
			CHANNELS 3 Zrotation Yrotation Xrotation
			JOINT Spine2
			{
				OFFSET 0.001457 0.052922 0.025425
				CHANNELS 3 Zrotation Yrotation Xrotation
				JOINT Neck
				{
					OFFSET -0.002778 0.213870 -0.042857
					CHANNELS 3 Zrotation Yrotation Xrotation
					JOINT Head
					{
						OFFSET 0.005152 0.064970 0.051349
						CHANNELS 3 Zrotation Yrotation Xrotation
						End Site
						{
							OFFSET 0.000000 0.000000 0.000000
						}
					}
				}
				JOINT LeftShoulder
				{
					OFFSET 0.078845 0.121749 -0.034090
					CHANNELS 3 Zrotation Yrotation Xrotation
					JOINT LeftArm
					{
						OFFSET 0.090977 0.030469 -0.008868
						CHANNELS 3 Zrotation Yrotation Xrotation
						JOINT LeftForeArm
						{
							OFFSET 0.259612 -0.012772 -0.027456
							CHANNELS 3 Zrotation Yrotation Xrotation
							JOINT LeftHand
							{
								OFFSET 0.249234 0.008986 -0.001171
								CHANNELS 3 Zrotation Yrotation Xrotation
								End Site
								{
									OFFSET 0.000000 0.000000 0.000000
								}
							}
						}
					}
				}
				JOINT RightShoulder
				{
					OFFSET -0.081759 0.118833 -0.038615
					CHANNELS 3 Zrotation Yrotation Xrotation
					JOINT RightArm
					{
						OFFSET -0.096012 0.032551 -0.009143
						CHANNELS 3 Zrotation Yrotation Xrotation
						JOINT RightForeArm
						{
							OFFSET -0.253742 -0.013329 -0.021401
							CHANNELS 3 Zrotation Yrotation Xrotation
							JOINT RightHand
							{
								OFFSET -0.255298 0.007772 -0.005559
								CHANNELS 3 Zrotation Yrotation Xrotation
								End Site
								{
									OFFSET 0.000000 0.000000 0.000000
								}
							}
						}
					}
				}
			}
		}
	}
}
MOTION
Frames: 7
Frame Time: 0.050000
0.000000 0.956505 0.000000 -0.661183 -3.421871 -4.157274 -0.295192 0.563972 5.713354 1.831146 -0.107489 -2.154132 2.003787 5.941142 5.519160 0.000000 0.000000 0.000000 0.635198 -0.200449 1.861430 -2.539335 0.318198 0.922817 5.234880 3.443741 14.172080 0.000000 0.000000 0.000000 5.511732 -0.502578 6.156366 -2.775983 1.402811 3.107055 -4.352435 3.903595 -0.825269 7.620017 -5.427793 -3.082401 0.000000 0.000000 0.000000 -25.738405 -8.021871 0.843064 -46.016104 -0.019655 -4.633456 -9.494030 -22.731811 2.557969 0.000000 0.000000 0.000000 24.294870 0.148292 -1.384260 52.059785 0.650693 -4.558997 13.350594 29.870476 4.497097 0.000000 0.000000 0.000000 
0.000375 0.955885 0.000033 -0.721068 -3.904540 -4.068121 -0.008457 0.604431 6.217866 1.351629 -0.017830 -3.103794 2.147736 6.209366 5.604228 0.000000 0.000000 0.000000 0.596879 -0.154837 1.427767 -2.555353 0.361458 1.594266 5.549077 4.259454 13.635217 0.000000 0.000000 0.000000 6.116843 -0.527005 6.138059 -3.277617 1.688780 3.741831 -5.383404 4.655444 -1.782227 8.489314 -5.681991 -4.710642 0.000000 0.000000 0.000000 -25.176173 -8.251513 0.671124 -46.107970 0.331916 -4.605930 -8.899298 -22.680408 2.388911 0.000000 0.000000 0.000000 24.386598 -0.593709 -1.598779 53.499337 -0.294780 -5.061928 12.640471 30.238050 4.433209 0.000000 0.000000 0.000000 
0.000701 0.955024 -0.000108 -0.471492 -3.334023 -4.052054 -0.486633 0.584079 5.824299 1.728341 -0.075309 -2.596096 1.995104 5.857473 5.260591 0.000000 0.000000 0.000000 0.614424 -0.153673 1.404953 -3.084742 0.412107 1.398470 5.270596 3.719723 13.814267 0.000000 0.000000 0.000000 5.881169 -0.519446 6.131633 -2.808795 1.404031 2.201686 -5.701554 4.724008 -0.703611 7.737877 -5.164100 -4.653766 0.000000 0.000000 0.000000 -24.970565 -8.182661 0.587574 -46.260097 0.218219 -4.654252 -9.195388 -21.627136 2.331199 0.000000 0.000000 0.000000 25.205458 -0.674035 -1.553734 52.652883 -0.510572 -5.228142 11.952758 30.129098 4.277296 0.000000 0.000000 0.000000 
0.000859 0.954766 -0.000161 -0.438993 -3.010699 -4.607758 -0.491882 0.651415 6.507766 1.724709 -0.064459 -2.791421 1.828666 5.539798 5.178626 0.000000 0.000000 0.000000 0.563426 -0.157533 1.466253 -3.048161 0.482193 2.443559 5.032362 3.488477 13.505116 0.000000 0.000000 0.000000 5.895944 -0.542062 6.492045 -2.525650 1.269082 3.115297 -6.113029 4.745603 -1.396113 8.046777 -5.262366 -5.125953 0.000000 0.000000 0.000000 -24.831803 -8.155610 0.426668 -46.579068 0.253439 -4.617743 -8.470012 -22.103478 2.219763 0.000000 0.000000 0.000000 25.086253 -0.230279 -1.186593 52.591954 -0.128222 -5.026166 11.025337 29.755269 3.988601 0.000000 0.000000 0.000000 
0.001050 0.954188 -0.000250 -0.378856 -2.743484 -4.901754 -0.924119 0.658932 6.382730 2.375003 -0.163316 -2.064462 1.829288 5.452439 4.831886 0.000000 0.000000 0.000000 0.390374 -0.153849 1.481890 -2.859997 0.500241 3.041018 4.833885 3.319111 13.194946 0.000000 0.000000 0.000000 5.906553 -0.571686 6.868306 -2.467297 1.237024 3.144774 -6.244994 4.873943 -1.581351 7.933772 -5.215988 -4.891713 0.000000 0.000000 0.000000 -25.067681 -8.387513 0.425579 -46.196269 0.059848 -4.445630 -8.271378 -22.083758 2.168017 0.000000 0.000000 0.000000 25.118921 -0.469731 -1.245524 52.684814 -0.080554 -5.021275 10.189115 29.282873 3.724472 0.000000 0.000000 0.000000 
0.001163 0.953746 -0.000237 -0.451502 -2.318241 -5.195209 -0.815118 0.664932 6.538069 2.370669 -0.173978 -1.833424 1.682890 5.112353 4.561262 0.000000 0.000000 0.000000 0.511476 -0.153533 1.442631 -2.909128 0.559877 3.790270 4.556249 2.990462 12.944035 0.000000 0.000000 0.000000 6.154612 -0.602276 7.108795 -2.456318 1.222203 2.539766 -6.268035 4.804723 -0.793447 7.904701 -5.184449 -5.042693 0.000000 0.000000 0.000000 -25.491524 -8.706918 0.574699 -45.809481 0.017731 -4.432214 -8.078102 -22.517658 2.178690 0.000000 0.000000 0.000000 25.421849 -0.122133 -0.978177 52.423597 0.475614 -4.866580 9.038342 27.979705 3.273927 0.000000 0.000000 0.000000 
0.001299 0.953428 -0.000127 -0.376240 -2.273129 -5.291849 -0.963646 0.651412 6.336617 2.466456 -0.213789 -1.288174 1.727933 5.135277 4.350757 0.000000 0.000000 0.000000 0.342313 -0.134770 1.302876 -2.762866 0.570754 4.250598 4.488905 2.965121 12.756328 0.000000 0.000000 0.000000 6.150704 -0.600564 7.115525 -2.598763 1.298908 2.786966 -6.285245 4.704114 -0.913300 8.145388 -5.249014 -5.551151 0.000000 0.000000 0.000000 -25.655660 -8.644955 0.539900 -45.673466 -0.007220 -4.396898 -7.560664 -22.921767 2.116001 0.000000 0.000000 0.000000 25.319754 0.149247 -0.833863 52.908065 0.750257 -4.768484 7.931104 27.403168 2.933760 0.000000 0.000000 0.000000 
